#!OML:ASF F:\VICON\USERDATA\INSTALL\rory3\rory3.ASF
:FULLY-SPECIFIED
:DEGREES
55
root 0.699934763508655 17.885710621796314 18.476796503371965 -3.6795661683267418 0.2190314966859397 -5.349088344060132
lfemur -15.581840978516457 -0.9068710846066668 -16.366922008143305
ltibia 45.50835987992303
lfoot -8.122906695069144 -5.388182376615599
ltoes -8.617127855074882
rfemur -3.4523497864631327 2.8913618844899713 28.84626077904268
rtibia 36.54079122965809
rfoot -8.544095322078517 -9.910556091762432
rtoes 5.772488310631373
lowerback 11.158863547221173 1.6922315093162155 3.7981202996127053
upperback -0.016530388356242404 2.8208710349187447 1.8630499380420815
thorax -6.057998200299147 1.351275410447891 -0.9449614318503614
lowerneck -16.566191367548402 -3.4695492792104985 -1.6220489325883665
upperneck 21.50914153557907 -4.702717405430922 0.9450591308683909
head 9.710199739251768 -2.177802699932737 -0.0367932260203698
lclavicle -1.3551357802708039e-15 7.266333515486639e-16
lhumerus -27.50697424136015 0.30321963750355696 82.1112348378061
lradius 23.562509594013775
lwrist 9.826819977018
lhand -29.310621832477068 17.86468342342519
lfingers 7.125019999999999
lthumb -2.243493960714124 48.49379314310605
rclavicle -1.3551357800659495e-15 7.26633351671885e-16
rhumerus -33.51866095882036 -22.646178371237685 -74.46143544842282
rradius 24.190968883902404
rwrist 8.24138354011273
rhand -17.79194244380663 21.793163507838983
rfingers 7.125019999999999
rthumb 8.504095933965486 -7.946083917032059
56
root 0.691921487884837 17.8751619637923 19.115176570598543 -3.8677179503953627 0.19159577507014508 -4.887651644011097
lfemur -14.536530565878337 -0.9623115450240047 -16.901698584166205
ltibia 43.279824557721675
lfoot -8.104531653156114 -5.512190879372224
ltoes -7.716938030552405
rfemur -3.7732713679269914 2.939700171623472 28.348309551218104
rtibia 37.70099497438693
rfoot -8.468055071224308 -9.8587354285832
rtoes 6.875329148287123
lowerback 11.159011232218386 1.6736802282774015 3.305322748900484
upperback -0.0065474405387781764 2.71801394759817 1.7762919641006252
thorax -6.0349940647506 1.3093699400699785 -0.8243233091916538
lowerneck -16.55068739805148 -3.5062352687106713 -1.6182890785829815
upperneck 21.554318066008946 -4.76357399649637 0.9651679860256795
head 9.7242417958858 -2.2049967924999514 -0.050647079597604866
lclavicle -1.3551357802720223e-15 7.266333515479043e-16
lhumerus -28.38917124501835 1.3987253051185826 82.210333660412
lradius 22.458819872585753
lwrist 10.0707580400308
lhand -29.644111523605034 18.256928586646506
lfingers 7.125019999999999
lthumb -2.63862390963178 48.78124791483233
rclavicle -1.3551357800644635e-15 7.266333516728099e-16
rhumerus -33.11650726185877 -22.65430710516202 -74.17617343404808
rradius 23.76884886876244
rwrist 8.276248587969942
rhand -17.869917052117664 21.767907943385627
rfingers 7.125019999999999
rthumb 8.376906827480985 -8.102507628669317
57
root 0.687996222423517 17.864494600560413 19.911127722896374 -3.936026681491518 0.23197554136700654 -4.466464495663509
lfemur -13.107407526967215 -1.0783714994027154 -17.395197976781976
ltibia 40.74859002010715
lfoot -8.62836052766342 -5.558275206984038
ltoes -10.84224302970387
rfemur -4.249899264024414 2.9026120006634724 27.867637963032717
rtibia 38.87002089478917
rfoot -8.215073770816394 -9.718014708459796
rtoes 5.804344063783349
lowerback 11.124597358260067 1.6247569619709368 2.836148532727867
upperback -0.006691322264066574 2.580397059033296 1.6663400878365202
thorax -6.043132636729395 1.2653922029812472 -0.6462114734152933
lowerneck -16.55809495576291 -3.5380263235450475 -1.6011119709755044
upperneck 21.563065683532933 -4.827430245410665 0.9979856983589647
head 9.748417154904288 -2.22699620096426 -0.059067763403154366
lclavicle -1.3551357802768935e-15 7.26633351544996e-16
lhumerus -29.129244176274437 2.4194344141786006 82.35702088347948
lradius 21.632976410413267
lwrist 10.530249315810883
lhand -29.88982075313104 18.705426382426786
lfingers 7.125019999999999
lthumb -2.945554284403617 49.23785268444574
rclavicle -1.3551357800650447e-15 7.266333516724574e-16
rhumerus -32.507384188804316 -22.495306821600895 -74.09443042149873
rradius 23.396360994637575
rwrist 8.260183566843235
rhand -17.961560690820743 21.767056936869277
rfingers 7.125019999999999
rthumb 8.312318787650772 -8.009344531004833
58
root 0.687932965716034 17.866231008710116 20.563465345333682 -3.731672100857244 0.37630442521416835 -4.385703265481568
lfemur -11.967992215911966 -1.204222941577153 -17.59420360476699
ltibia 38.47038843313713
lfoot -9.172997447384542 -5.310227490865861
ltoes -14.810548432536
rfemur -4.830122816726471 2.7669710611017697 27.64421631669661
rtibia 39.56800627548749
rfoot -8.652813097916752 -9.839610732169398
rtoes 5.099319728231446
lowerback 11.021255989411985 1.6000232619250192 2.791613262541575
upperback 0.0009786109224760725 2.577658716622335 1.650822454575904
thorax -6.052562943119192 1.2604744624637678 -0.5627317688422295
lowerneck -16.58518535305008 -3.5710884920680432 -1.5984095455223697
upperneck 21.590361342020714 -4.921875798265965 0.9869889105528267
head 9.768024152639116 -2.2625026228718865 -0.08798111186494043
lclavicle -1.355135780287074e-15 7.266333515389322e-16
lhumerus -30.09146093176342 3.0456586944499664 82.42056066380042
lradius 21.09099692718083
lwrist 10.837567921962442
lhand -29.8881615308895 19.320523489637594
lfingers 7.125019999999999
lthumb -3.0028232352913964 49.87178379478707
rclavicle -1.355135780060208e-15 7.266333516753619e-16
rhumerus -31.77158364390297 -22.16074535395143 -74.09520291727063
rradius 23.172662154747137
rwrist 8.401293907277093
rhand -17.995346645437987 21.936522378970903
rfingers 7.125019999999999
rthumb 8.269779562171767 -7.751788735554021
59
root 0.6931653432736236 17.87334581035467 21.142363369203732 -3.5161921188317553 0.5065470848535525 -4.237783713076315
lfemur -11.096948182811769 -1.3444449224024633 -17.868474063103104
ltibia 36.77293617861657
lfoot -10.204209832640558 -4.860775144802874
ltoes -15.476259063960274
rfemur -5.496649104317434 2.6074058993491462 27.34368447547912
rtibia 40.22135525948469
rfoot -8.781753036185407 -9.867521082662078
rtoes 3.795462121576035
lowerback 10.982505302343357 1.5342200036311504 2.5760147667991076
upperback -0.010925923896218631 2.4487829679856126 1.6095395862455162
thorax -6.077997620657427 1.2150211892432383 -0.43699594174726464
lowerneck -16.572348143679676 -3.594571793772087 -1.6034846402236242
upperneck 21.606704473009998 -4.957411951785847 0.9820472292295268
head 9.779032182272802 -2.276176386442981 -0.09458784981589266
lclavicle -1.3551357802925064e-15 7.266333515357786e-16
lhumerus -30.939092034513177 3.594023293148843 82.55361431631904
lradius 20.824246869576164
lwrist 10.867318688429867
lhand -30.01069704841171 19.73727483090363
lfingers 7.125019999999999
lthumb -3.1694493681734994 50.30990087380131
rclavicle -1.355135780059632e-15 7.266333516758016e-16
rhumerus -31.018870849430023 -21.736223917795797 -74.25634225534499
rradius 23.112688007220946
rwrist 8.377063181032836
rhand -18.06646926237398 22.034336475481492
rfingers 7.125019999999999
rthumb 8.122223875361561 -7.640727883952246
60
root 0.7030238521397488 17.873356843220517 21.798962658473865 -3.564335919467158 0.5121301937107465 -3.6367314237693256
lfemur -9.785156863639191 -1.423418584405241 -18.49273171164656
ltibia 35.60880756593159
lfoot -11.30450077948758 -4.275248444417162
ltoes -15.047193986837389
rfemur -6.373567597024922 2.489531460378461 26.613223913232613
rtibia 41.09598182860527
rfoot -9.226858196481789 -10.019104477527597
rtoes 4.481419310494042
lowerback 10.976312726241986 1.4294413659134468 1.9513053733874681
upperback 0.024398908929996202 2.2103976381925947 1.5138694436024318
thorax -6.050570606222936 1.1401967329316658 -0.14605373817245093
lowerneck -16.598753108733966 -3.6158455667029714 -1.605614362197301
upperneck 21.61225022342675 -5.001436162946806 1.0299934817163294
head 9.793860635127663 -2.2924267479386096 -0.08774105235392596
lclavicle -1.3551357802925898e-15 7.266333515360065e-16
lhumerus -31.809280765112323 3.947693950204094 82.59801010681974
lradius 20.77676103467719
lwrist 10.945267222167033
lhand -30.2036816473124 19.695095849220408
lfingers 7.125019999999999
lthumb -3.3989087242270286 50.271820900383645
rclavicle -1.35513578005755e-15 7.266333516772388e-16
rhumerus -30.443919628269022 -21.220849359966643 -74.31234141444497
rradius 23.199666736634107
rwrist 7.941841498549717
rhand -18.198244786995264 21.942086383220495
rfingers 7.125019999999999
rthumb 7.899906048590354 -7.9361957700901025
61
root 0.7044015329951661 17.86826154364426 22.13825559018437 -3.679843819455166 0.4389370726439396 -2.9747705871601355
lfemur -8.105728107250687 -1.5482360354477565 -19.298758805751685
ltibia 34.56181871727149
lfoot -12.503063524078414 -3.513579986810649
ltoes -13.565966923967963
rfemur -7.335939424022187 2.4684645461220556 25.913985800075267
rtibia 41.981388724470094
rfoot -9.151006591604947 -9.902301835144817
rtoes 4.909649489436419
lowerback 10.988836779770718 1.3100196027833335 1.2697429379806353
upperback 0.05928953446026419 1.939214875993233 1.3898273295181438
thorax -6.0473888374198985 1.047247913055685 0.19823003457037935
lowerneck -16.595989960848588 -3.639686444135408 -1.6391793988961108
upperneck 21.502026419126967 -5.0280279978829645 1.1785713277195047
head 9.7329167013265 -2.3004823405502552 -0.02341903548001853
lclavicle -1.3551357802869907e-15 7.266333515395399e-16
lhumerus -32.637525005364346 4.1661348484114695 82.61724682953142
lradius 20.861293000287812
lwrist 11.13552245243811
lhand -30.339619468273415 20.01067005693598
lfingers 7.125019999999999
lthumb -3.6078819688871815 50.46284594573071
rclavicle -1.3551357800582656e-15 7.266333516770877e-16
rhumerus -29.992655627043096 -20.742821034999526 -74.195410569932
rradius 23.365684023847713
rwrist 7.303466636715633
rhand -18.199007351661884 21.969276014165537
rfingers 7.125019999999999
rthumb 7.88011939361399 -7.88443537853378
